# AST/ASF file generated using VICON BodyLanguage
# -----------------------------------------------
:version 1.10
:name VICON
:units
  mass 1.0
  length 0.45
  angle deg
:documentation
   .ast/.asf automatically generated from VICON data using
   VICON BodyBuilder and BodyLanguage model FoxedUp or BRILLIANT.MOD
:root
   order TX TY TZ RX RY RZ
   axis XYZ
   position 0 0 0  
   orientation 0 0 0 
:bonedata
  begin
     id 1 
     name lhipjoint
     direction 0.602128 -0.715006 0.355257 
     length 2.21237 
     axis 0 0 0  XYZ
  end
  begin
     id 2 
     name lfemur
     direction 0.34202 -0.939693 0  
     length 6.71649  
     axis 0 0 20  XYZ
    dof rx ry rz
    limits (-160.0 20.0)
           (-70.0 70.0)
           (-60.0 70.0)
  end
  begin
     id 3 
     name ltibia
     direction 0.34202 -0.939693 0   
     length 6.97123   
     axis 0 0 20   XYZ
    dof rx
    limits (-10.0 170.0)
  end
  begin
     id 4 
     name lfoot
     direction 0.0655697 -0.180151 0.981451   
     length 1.80924   
     axis -90 7.62852e-016 20   XYZ
    dof rx rz
    limits (-45.0 90.0)
           (-70.0 20.0)
  end
  begin
     id 5 
     name ltoes
     direction 1.53545e-011 -4.21827e-011 1   
     length 0.916331   
     axis -90 7.62852e-016 20   XYZ
    dof rx
    limits (-90.0 20.0)
  end
  begin
     id 6 
     name rhipjoint
     direction -0.625414 -0.698792 0.347201   
     length 2.2637  
     axis 0 0 0  XYZ 
  end
  begin
     id 7 
     name rfemur
     direction -0.34202 -0.939693 0   
     length 7.07595   
     axis 0 0 -20   XYZ
    dof rx ry rz
    limits (-160.0 20.0)
           (-70.0 70.0)
           (-70.0 60.0)
  end
  begin
     id 8 
     name rtibia
     direction -0.34202 -0.939693 0   
     length 7.22924   
     axis 0 0 -20   XYZ
    dof rx
    limits (-10.0 170.0)
 end
 begin
     id 9 
     name rfoot
     direction -0.0766747 -0.210662 0.974547   
     length 1.98482  
     axis -90 -7.62852e-016 -20   XYZ
    dof rx rz
    limits (-45.0 90.0)
           (-20.0 70.0)
  end
  begin
     id 10 
     name rtoes
     direction -1.53532e-011 -4.21867e-011 1   
     length 0.999842   
     axis -90 -7.62852e-016 -20   XYZ
    dof rx
    limits (-90.0 20.0)
  end
  begin
     id 11 
     name lowerback
     direction -0.0224668 0.997354 -0.0691422   
     length 2.09945   
     axis 0 0 0   XYZ
    dof rx ry rz
    limits (-20.0 45.0)
           (-30.0 30.0)
           (-30.0 30.0)
  end
  begin
     id 12 
     name upperback
     direction 0.0134698 0.998451 -0.0539888   
     length 2.09758   
     axis 0 0 0   XYZ
    dof rx ry rz
    limits (-20.0 45.0)
           (-30.0 30.0)
           (-30.0 30.0)
  end
  begin
     id 13 
     name thorax
     direction 0.0241905 0.99948 -0.0213333   
     length 2.10428   
     axis 0 0 0   XYZ
    dof rx ry rz
    limits (-20.0 45.0)
           (-30.0 30.0)
           (-30.0 30.0)
  end
  begin
     id 14 
     name lowerneck
     direction -0.00866847 0.995978 0.0891737   
     length 1.3959   
     axis 0 0 0   XYZ
    dof rx ry rz
    limits (-20.0 45.0)
           (-30.0 30.0)
           (-30.0 30.0)
  end
  begin
     id 15 
     name upperneck
     direction 0.0680679 0.992203 0.104404   
     length 1.39452   
     axis 0 0 0   XYZ
    dof rx ry rz
    limits (-20.0 45.0)
           (-30.0 30.0)
           (-30.0 30.0)
  end
  begin
     id 16
     name head
     direction 0.0242216 0.999358 0.0264054  
     length 1.40433  
     axis 0 0 0   XYZ
    dof rx ry rz
    limits (-20.0 45.0)
           (-30.0 30.0)
           (-30.0 30.0)
  end
  begin
     id 17 
     name lclavicle
     direction 0.929368 0.362991 -0.0671771  
     length 3.04887  
     axis 0 0 0   XYZ
    dof ry rz
    limits (-20.0 10.0)
           (0.0 20.0)
  end
  begin
     id 18 
     name lhumerus
     direction 1 -4.48967e-011 -7.13741e-028   
     length 4.77195   
     axis -180 -30 -90   XYZ
    dof rx ry rz
    limits (-60.0 90.0)
           (-90.0 90.0)
           (-90.0 90.0)
  end
  begin
     id 19
     name lradius
     direction 1 -4.48977e-011 3.60404e-027   
     length 2.98444   
     axis -180 -30 -90   XYZ
    dof rx
    limits (-10.0 170.0)
  end
  begin
     id 20
     name lwrist
     direction 1 -4.48997e-011 7.54877e-027   
     length 1.49222   
     axis -7.18178e-015 90 90   XYZ
    dof ry
    limits (-180.0 0.0)
 end
  begin
     id 21 
     name lhand
     direction 1 -4.489e-011 1.51105e-026   
     length 0.992285   
     axis -9.63605e-015 90 90   XYZ
    dof rx rz
    limits (-90.0 90.0)
           (-45.0 45.0)
  end
  begin
     id 22 
     name lfingers
     direction 1 -4.48998e-011 3.01948e-026   
     length 0.800006   
     axis -1.92718e-014 90 90   XYZ
    dof rx
    limits (0.0 90.0)
  end
  begin
     id 23
     name lthumb
     direction 0.707107 -6.34881e-011 0.707107   
     length 1.14865   
     axis -90 45 -3.53137e-014   XYZ
    dof rx rz
    limits (-45.0 45.0)
           (-45.0 45.0)
  end
  begin
     id 24 
     name rclavicle
     direction -0.945672 0.324529 0.0196374   
     length 3.4236  
     axis 0 0 0   XYZ 
    dof ry rz
    limits (-10.0 20.0)
           (-20.0 0.0)
  end
  begin
     id 25 
     name rhumerus
     direction -1 -4.4896e-011 1.02757e-029  
     length 4.62052   
     axis -180 30 90   XYZ
    dof rx ry rz
    limits (-90.0 60.0)
           (-90.0 90.0)
           (-90.0 90.0)
  end
  begin
     id 26 
     name rradius
     direction -1 -4.48982e-011 3.85962e-027   
     length 2.95332   
     axis -180 30 90   XYZ
    dof rx
    limits (-10.0 170.0)
  end
  begin
     id 27 
     name rwrist
     direction -1 -4.48961e-011 7.55118e-027   
     length 1.47666   
     axis -7.18178e-015 -90 -90   XYZ
    dof ry
    limits (-180.0 0.0)
  end
  begin
     id 28
     name rhand
     direction -1 -4.48984e-011 1.50994e-026   
     length 0.990956   
     axis -9.63605e-015 -90 -90   XYZ
    dof rx rz
    limits (-90.0 90.0)
           (-45.0 45.0)
  end
  begin
     id 29
     name rfingers
     direction -1 -4.4892e-011 3.02158e-026   
     length 0.798934   
     axis -1.92718e-014 -90 -90   XYZ
    dof rx
    limits (0.0 90.0)
  end
  begin
     id 30
     name rthumb
     direction -0.707107 -6.34916e-011 0.707107   
     length 1.14711   
     axis -90 -45 3.53137e-014   XYZ
    dof rx rz
    limits (-45.0 45.0)
           (-45.0 45.0)
  end
:hierarchy
  begin
    root lhipjoint rhipjoint lowerback
    lhipjoint lfemur
    lfemur ltibia
    ltibia lfoot
    lfoot ltoes
    rhipjoint rfemur
    rfemur rtibia
    rtibia rfoot
    rfoot rtoes
    lowerback upperback
    upperback thorax
    thorax lowerneck lclavicle rclavicle
    lowerneck upperneck
    upperneck head
    lclavicle lhumerus
    lhumerus lradius
    lradius lwrist
    lwrist lhand lthumb
    lhand lfingers
    rclavicle rhumerus
    rhumerus rradius
    rradius rwrist
    rwrist rhand rthumb
    rhand rfingers
  end

#!OML:ASF H:\ManfredObstacles\Project 1\Capture day 1\Session 1\Male.ASF
:FULLY-SPECIFIED
:DEGREES
177
root -7.14918 16.3687 9.37309 -168.695 75.9754 -177.091
lowerback -8.60726 -1.113 -2.34202
upperback 2.90667 -1.1981 -0.116252
thorax 7.9552 -0.695369 1.01092
lowerneck -0.527775 -2.60889 -6.10389
upperneck -2.89008 -3.22596 9.91199
head -0.545704 -1.60043 4.3587
rclavicle 2.2413e-014 -4.77083e-015
rhumerus -30.2848 -14.0962 -82.2064
rradius 33.7174
rwrist 26.4
rhand -0.776166 -4.71714
rfingers 7.12502
rthumb 24.8467 -33.1226
lclavicle 2.2413e-014 -4.77083e-015
lhumerus -31.7873 18.198 78.4078
lradius 19.3677
lwrist -31.6372
lhand -9.54336 7.85869
lfingers 7.12502
lthumb 16.4233 37.1834
rfemur -14.3173 -5.54017 26.7361
rtibia 27.1035
rfoot -23.0164 20.8557
rtoes 24.4569
lfemur -34.7579 -10.5996 -12.1826
ltibia 34.7091
lfoot -3.49071 3.62097
ltoes -9.4743
178
root -6.95642 16.3609 9.29912 -167.538 76.5124 -176.031
lowerback -8.8334 -0.961029 -2.03253
upperback 2.86007 -1.02412 -0.156746
thorax 8.02203 -0.594339 0.818253
lowerneck -0.723416 -2.56075 -5.93266
upperneck -2.74631 -3.17125 9.60883
head -0.477005 -1.5681 4.2104
rclavicle -5.63555e-014 -6.36111e-015
rhumerus -29.9758 -13.1671 -82.8246
rradius 34.2944
rwrist 26.1605
rhand -0.870366 -4.59706
rfingers 7.12502
rthumb 24.7565 -33.015
lclavicle -5.63555e-014 -6.36111e-015
lhumerus -32.2969 19.0257 77.6016
lradius 18.9844
lwrist -32.3323
lhand -9.4973 7.89444
lfingers 7.12502
lthumb 16.4677 37.2155
rfemur -13.3423 -5.38086 26.757
rtibia 26.5151
rfoot -23.4486 21.1555
rtoes 23.4837
lfemur -34.4697 -10.9098 -11.5052
ltibia 30.2035
lfoot -2.37215 2.00762
ltoes -7.34537
179
root -6.76339 16.3536 9.22712 -166.629 77.0778 -175.212
lowerback -8.95348 -0.820663 -1.89818
upperback 2.75425 -0.851813 -0.159471
thorax 7.96971 -0.502925 0.766343
lowerneck -0.743261 -2.48356 -5.86711
upperneck -2.74403 -3.07195 9.42583
head -0.48542 -1.51841 4.13236
rclavicle 1.41137e-014 -2.78299e-015
rhumerus -29.8602 -12.103 -83.3253
rradius 34.8695
rwrist 25.7332
rhand -0.962769 -4.54087
rfingers 7.12502
rthumb 24.6679 -32.9709
lclavicle 1.41137e-014 -2.78299e-015
lhumerus -32.8808 20.0623 76.6984
lradius 18.5118
lwrist -33.2328
lhand -9.58794 7.88967
lfingers 7.12502
lthumb 16.3804 37.218
rfemur -12.308 -5.07875 26.6904
rtibia 25.8402
rfoot -23.7478 21.3137
rtoes 22.5852
lfemur -34.1316 -10.6619 -11.2513
ltibia 26.1584
lfoot -0.693237 -0.539803
ltoes -6.51534
180
root -6.56725 16.3477 9.15405 -166.92 77.7145 -175.518
lowerback -8.96894 -0.649388 -2.00234
upperback 2.64966 -0.600591 -0.295943
thorax 7.85861 -0.38019 0.721108
lowerneck -0.746985 -2.41273 -5.73682
upperneck -2.71134 -2.97946 9.35527
head -0.485209 -1.47249 4.0816
rclavicle -1.66979e-014 -1.15295e-014
rhumerus -29.8753 -11.4444 -83.7449
rradius 35.3441
rwrist 25.4735
rhand -0.88872 -4.59687
rfingers 7.12502
rthumb 24.7389 -33.0172
lclavicle -1.66979e-014 -1.15295e-014
lhumerus -33.3589 20.7697 75.7826
lradius 17.9708
lwrist -33.945
lhand -9.57108 7.90924
lfingers 7.12502
lthumb 16.3967 37.2362
rfemur -11.1175 -4.73505 26.3014
rtibia 25.1265
rfoot -23.9001 21.5116
rtoes 22.7035
lfemur -33.6497 -9.72608 -11.7298
ltibia 22.7381
lfoot 1.06535 -3.9835
ltoes -6.97862
181
root -6.36577 16.3381 9.07884 -166.978 78.2472 -175.524
lowerback -9.00019 -0.44314 -2.01857
upperback 2.578 -0.311818 -0.43958
thorax 7.79057 -0.235003 0.624147
lowerneck -0.675808 -2.39085 -5.60731
upperneck -2.78407 -2.94647 9.34416
head -0.526194 -1.45886 4.05435
rclavicle -3.27995e-014 -3.57812e-015
rhumerus -29.9984 -11.2064 -84.0533
rradius 35.6849
rwrist 25.2217
rhand -0.922869 -4.66675
rfingers 7.12502
rthumb 24.7061 -33.0915
lclavicle -3.27995e-014 -3.57812e-015
lhumerus -33.7598 21.5552 74.8103
lradius 17.3463
lwrist -35.0467
lhand -9.31598 7.78207
lfingers 7.12502
lthumb 16.6423 37.0886
rfemur -9.85562 -4.22121 25.9919
rtibia 24.4644
rfoot -24.0184 21.6026
rtoes 23.5906
lfemur -33.1353 -8.21773 -12.521
ltibia 20.0539
lfoot 2.90357 -7.46606
ltoes -7.48145
182
root -6.16097 16.3194 9.0005 -166.46 78.6626 -174.989
lowerback -9.1304 -0.244998 -1.97697
upperback 2.51115 -0.0452941 -0.499146
thorax 7.78666 -0.10101 0.579467
lowerneck -0.591901 -2.39824 -5.57311
upperneck -2.9063 -2.94898 9.38471
head -0.580194 -1.46315 4.06504
rclavicle -5.45664e-014 3.97569e-016
rhumerus -30.0741 -11.309 -84.1737
rradius 35.7494
rwrist 25.0704
rhand -1.08703 -4.51973
rfingers 7.12502
rthumb 24.5488 -32.966
lclavicle -5.45664e-014 3.97569e-016
lhumerus -34.2207 22.8306 73.7104
lradius 16.6958
lwrist -36.8633
lhand -9.35378 7.77217
lfingers 7.12502
lthumb 16.6059 37.0817
rfemur -8.69667 -3.42135 25.8529
rtibia 23.9126
rfoot -24.2319 21.2813
rtoes 24.1936
lfemur -32.7157 -6.49427 -13.3938
ltibia 18.1895
lfoot 4.68411 -10.1546
ltoes -7.04881
183
root -5.95199 16.2978 8.91746 -166.623 79.0604 -175.126
lowerback -9.29075 -0.19259 -2.13379
upperback 2.4629 0.0465919 -0.490163
thorax 7.8256 -0.0640395 0.691655
lowerneck -0.679285 -2.30258 -5.77348
upperneck -2.85931 -2.81965 9.45266
head -0.556477 -1.3946 4.12781
rclavicle -2.68359e-015 4.77083e-015
rhumerus -30.1262 -11.291 -84.1687
rradius 35.6899
rwrist 25.1922
rhand -1.14898 -4.27999
rfingers 7.12502
rthumb 24.4894 -32.7343
lclavicle -2.68359e-015 4.77083e-015
lhumerus -34.9144 24.693 72.4385
lradius 16.2085
lwrist -38.7973
lhand -9.5139 7.88148
lfingers 7.12502
lthumb 16.4517 37.2039
rfemur -7.54851 -2.61757 25.5815
rtibia 23.4896
rfoot -24.4325 20.9127
rtoes 25.1239
lfemur -32.3017 -5.26363 -14.3054
ltibia 17.2194
lfoot 5.79797 -11.2178
ltoes -6.24204
